<?xml version="1.0" encoding="UTF-8" standalone="no"?>
<!-- Created with Inkscape (http://www.inkscape.org/) -->

<svg
   xmlns:dc="http://purl.org/dc/elements/1.1/"
   xmlns:cc="http://creativecommons.org/ns#"
   xmlns:rdf="http://www.w3.org/1999/02/22-rdf-syntax-ns#"
   xmlns:svg="http://www.w3.org/2000/svg"
   xmlns="http://www.w3.org/2000/svg"
   xmlns:xlink="http://www.w3.org/1999/xlink"
   xmlns:sodipodi="http://sodipodi.sourceforge.net/DTD/sodipodi-0.dtd"
   xmlns:inkscape="http://www.inkscape.org/namespaces/inkscape"
   width="512"
   height="512"
   viewBox="0 0 135.46666 135.46667"
   version="1.1"
   id="svg8"
   inkscape:version="0.92.2 5c3e80d, 2017-08-06"
   sodipodi:docname="languagesLogo.svg">
  <defs
     id="defs2">
    <linearGradient
       inkscape:collect="always"
       id="linearGradient2012">
      <stop
         style="stop-color:#e9d8fd;stop-opacity:1;"
         offset="0"
         id="stop2008" />
      <stop
         style="stop-color:#e9d8fd;stop-opacity:0;"
         offset="1"
         id="stop2010" />
    </linearGradient>
    <linearGradient
       inkscape:collect="always"
       xlink:href="#linearGradient2012"
       id="linearGradient2014"
       x1="134.64897"
       y1="295.67706"
       x2="1.082283"
       y2="163.12082"
       gradientUnits="userSpaceOnUse" />
  </defs>
  <sodipodi:namedview
     id="base"
     pagecolor="#ffffff"
     bordercolor="#666666"
     borderopacity="1.0"
     inkscape:pageopacity="0.0"
     inkscape:pageshadow="2"
     inkscape:zoom="1"
     inkscape:cx="279.75822"
     inkscape:cy="215.04405"
     inkscape:document-units="mm"
     inkscape:current-layer="layer1"
     showgrid="false"
     units="px"
     showguides="true"
     inkscape:guide-bbox="true"
     inkscape:snap-others="true"
     inkscape:snap-nodes="true"
     inkscape:snap-global="true"
     inkscape:window-width="1440"
     inkscape:window-height="878"
     inkscape:window-x="-1"
     inkscape:window-y="4"
     inkscape:window-maximized="0">
    <sodipodi:guide
       position="-90.487495,-12.435417"
       orientation="0.70710678,0.70710678"
       id="guide2021"
       inkscape:locked="false" />
  </sodipodi:namedview>
  <metadata
     id="metadata5">
    <rdf:RDF>
      <cc:Work
         rdf:about="">
        <dc:format>image/svg+xml</dc:format>
        <dc:type
           rdf:resource="http://purl.org/dc/dcmitype/StillImage" />
        <dc:title></dc:title>
      </cc:Work>
    </rdf:RDF>
  </metadata>
  <g
     inkscape:label="Layer 1"
     inkscape:groupmode="layer"
     id="layer1"
     transform="translate(0,-161.53332)">
    <circle
       r="67.294258"
       cy="229.26665"
       cx="67.73333"
       id="circle1633"
       style="opacity:1;fill:url(#linearGradient2014);fill-opacity:1;stroke:#000000;stroke-width:0.92604166;stroke-linecap:butt;stroke-linejoin:miter;stroke-miterlimit:4;stroke-dasharray:none;stroke-dashoffset:0;stroke-opacity:1" />
    <path
       style="opacity:0.18999999;fill:#000000;fill-rule:evenodd;stroke:none;stroke-width:0.99999994px;stroke-linecap:butt;stroke-linejoin:miter;stroke-opacity:1"
       d="M 306 118 L 207 394 L 315.89844 502.89844 A 254.3405 254.3405 0 0 0 502.89648 315.82617 L 306 118 z "
       transform="matrix(0.26458333,0,0,0.26458333,0,161.53332)"
       id="path2023" />
    <rect
       style="opacity:1;fill:#ffffff;fill-opacity:1;stroke:#000000;stroke-width:1.23094165;stroke-linecap:butt;stroke-linejoin:miter;stroke-miterlimit:4;stroke-dasharray:none;stroke-dashoffset:0;stroke-opacity:1"
       id="rect1828"
       width="77.590576"
       height="9.4501343"
       x="157.32301"
       y="131.89764"
       ry="4.7250671"
       transform="matrix(-0.31634834,0.9486431,0.9486431,0.31634834,0,0)" />
    <path
       style="opacity:1;fill:#ffffff;fill-opacity:1;stroke:#000000;stroke-width:6.07060719;stroke-linecap:butt;stroke-linejoin:miter;stroke-miterlimit:4;stroke-dasharray:none;stroke-dashoffset:0;stroke-opacity:1"
       d="M 345.1875 154.39453 C 337.32377 154.56353 329.75353 158.72367 325.51758 166.06055 L 321.83789 172.43359 C 315.38311 183.6136 319.18718 197.81084 330.36719 204.26562 L 409.38477 249.88672 L 330.36719 295.50586 C 319.18718 301.96064 315.38311 316.15788 321.83789 327.33789 L 325.51758 333.71094 C 331.97236 344.89095 346.1696 348.69502 357.34961 342.24023 L 478.43359 272.33203 C 486.6315 267.59897 490.85484 258.70348 489.98438 249.88672 C 490.85565 241.06932 486.6321 232.17287 478.43359 227.43945 L 357.34961 157.53125 C 353.50648 155.31242 349.3066 154.30601 345.1875 154.39453 z "
       transform="matrix(0.26458333,0,0,0.26458333,0,161.53332)"
       id="rect1842" />
    <path
       id="path1861"
       d="m 43.341404,202.38354 c 2.08062,0.0447 4.08357,1.14542 5.20434,3.08663 l 0.97358,1.6862 c 1.70783,2.95805 0.70133,6.7144 -2.25671,8.42223 l -20.90673,12.07058 20.90673,12.07006 c 2.95804,1.70783 3.96454,5.46418 2.25671,8.42223 l -0.97358,1.6862 c -1.70783,2.95805 -5.46418,3.96454 -8.42223,2.25671 L 8.0867132,233.58784 c -2.16903,-1.25229 -3.286455,-3.60589 -3.056146,-5.93866 -0.230524,-2.33294 0.886957,-4.68679 3.056146,-5.93917 L 40.123514,203.21346 c 1.01683,-0.58706 2.12805,-0.85334 3.21789,-0.82992 z"
       style="opacity:1;fill:#ffffff;fill-opacity:1;stroke:#000000;stroke-width:1.6061815;stroke-linecap:butt;stroke-linejoin:miter;stroke-miterlimit:4;stroke-dasharray:none;stroke-dashoffset:0;stroke-opacity:1"
       inkscape:connector-curvature="0" />
  </g>
</svg>
