<?xml version="1.0" encoding="UTF-8" standalone="no"?>
<svg
   xmlns:dc="http://purl.org/dc/elements/1.1/"
   xmlns:cc="http://creativecommons.org/ns#"
   xmlns:rdf="http://www.w3.org/1999/02/22-rdf-syntax-ns#"
   xmlns:svg="http://www.w3.org/2000/svg"
   xmlns="http://www.w3.org/2000/svg"
   xmlns:xlink="http://www.w3.org/1999/xlink"
   id="svg8"
   version="1.1"
   viewBox="0 0 135.46666 135.46667"
   height="512"
   width="512">
  <defs
     id="defs2">
    <linearGradient
       id="linearGradient1657">
      <stop
         id="stop1653"
         offset="0"
         style="stop-color:#c6f6d5;stop-opacity:1;" />
      <stop
         id="stop1655"
         offset="1"
         style="stop-color:#c6f6d5;stop-opacity:0;" />
    </linearGradient>
    <linearGradient
       gradientTransform="translate(-6.8717448e-6,2.938802e-6)"
       y2="162.32706"
       x2="0.81769973"
       y1="295.94165"
       x1="134.38438"
       gradientUnits="userSpaceOnUse"
       id="linearGradient1744"
       xlink:href="#linearGradient1657" />
  </defs>
  <metadata
     id="metadata5">
    <rdf:RDF>
      <cc:Work
         rdf:about="">
        <dc:format>image/svg+xml</dc:format>
        <dc:type
           rdf:resource="http://purl.org/dc/dcmitype/StillImage" />
        <dc:title></dc:title>
      </cc:Work>
    </rdf:RDF>
  </metadata>
  <g
     transform="translate(0,-161.53332)"
     id="layer1">
    <circle
       style="opacity:1;fill:url(#linearGradient1744);fill-opacity:1;stroke:#000000;stroke-width:0.92604166;stroke-linecap:butt;stroke-linejoin:miter;stroke-miterlimit:4;stroke-dasharray:none;stroke-dashoffset:0;stroke-opacity:1"
       id="circle1633"
       cx="67.73333"
       cy="229.26665"
       r="67.294258" />
    <path
       id="path1631"
       transform="matrix(0.26458333,0,0,0.26458333,0,161.53332)"
       d="M 429.125 180.54297 L 70.003906 379.06445 L 193.03516 502.0957 A 254.3405 254.3405 0 0 0 256 510.33984 A 254.3405 254.3405 0 0 0 510.06641 261.48438 L 429.125 180.54297 z "
       style="opacity:0.19;fill:#333333;fill-opacity:1;stroke:none;stroke-width:36.996315;stroke-linecap:butt;stroke-linejoin:miter;stroke-miterlimit:4;stroke-dasharray:none;stroke-dashoffset:0;stroke-opacity:1" />
    <path
       id="path1510"
       d="m 66.401861,188.64207 c 0,0 -3.89309,-7.95324 -3.53836,-10.40064 0.48942,-3.37664 6.00449,-5.0395 3.32392,-11.15121 -1.71515,-3.91052 -2.14446,-3.75281 -2.14446,-3.75281 0,0 1.79559,5.93864 -3.96726,11.15121 -4.51706,4.08572 6.32616,14.15345 6.32616,14.15345 z"
       style="opacity:0.20100002;fill:#b3b3b3;fill-rule:evenodd;stroke:#000000;stroke-width:0.5291667;stroke-linecap:butt;stroke-linejoin:miter;stroke-miterlimit:4;stroke-dasharray:none;stroke-opacity:1" />
    <path
       style="opacity:0.20100002;fill:#b3b3b3;fill-rule:evenodd;stroke:#000000;stroke-width:0.5291667;stroke-linecap:butt;stroke-linejoin:miter;stroke-miterlimit:4;stroke-dasharray:none;stroke-opacity:1"
       d="m 54.107621,188.35811 c 0,0 -2.30415,-4.70716 -2.0942,-6.15566 0.28967,-1.99848 3.55378,-2.98265 1.96727,-6.59989 -1.01511,-2.31445 -1.2692,-2.22111 -1.2692,-2.22111 0,0 1.06273,3.51481 -2.34804,6.59988 -2.67344,2.41815 3.74417,8.37678 3.74417,8.37678 z"
       id="path1512" />
    <path
       id="path1514"
       d="m 75.577131,187.76173 c 0,0 -2.30415,-4.70716 -2.09419,-6.15566 0.28966,-1.99848 3.55378,-2.98265 1.96727,-6.59989 -1.01512,-2.31445 -1.26921,-2.22111 -1.26921,-2.22111 0,0 1.06273,3.51481 -2.34804,6.59988 -2.67343,2.41815 3.74417,8.37678 3.74417,8.37678 z"
       style="opacity:0.20100002;fill:#b3b3b3;fill-rule:evenodd;stroke:#000000;stroke-width:0.5291667;stroke-linecap:butt;stroke-linejoin:miter;stroke-miterlimit:4;stroke-dasharray:none;stroke-opacity:1" />
    <ellipse
       ry="7.4546924"
       rx="46.21909"
       cy="260.04648"
       cx="65.399818"
       id="path1536"
       style="opacity:0.96199999;fill:#ffffff;fill-opacity:1;stroke:#000000;stroke-width:2.64583325;stroke-linecap:butt;stroke-linejoin:miter;stroke-miterlimit:4;stroke-dasharray:none;stroke-dashoffset:0;stroke-opacity:1" />
    <rect
       ry="9.5420065"
       y="191.03214"
       x="35.226288"
       height="70.670486"
       width="58.444786"
       id="rect1518"
       style="opacity:1;fill:#ffffff;fill-opacity:1;stroke:#000000;stroke-width:2.64583325;stroke-linecap:butt;stroke-linejoin:miter;stroke-miterlimit:4;stroke-dasharray:none;stroke-dashoffset:0;stroke-opacity:1" />
    <path
       id="path1522"
       d="m 96.2767,206.91021 c -0.871582,0 -1.742785,0.0179 -2.605525,0.0532 v 39.91126 c 7.877245,0.32244 16.491435,-0.82677 19.113045,-3.44837 4.66896,-4.66896 4.66896,-28.34557 0,-33.01452 -2.33448,-2.33448 -9.42113,-3.5016 -16.50752,-3.5016 z"
       style="opacity:1;fill:#ffffff;fill-opacity:1;stroke:#000000;stroke-width:2.64583325;stroke-linecap:butt;stroke-linejoin:miter;stroke-miterlimit:4;stroke-dasharray:none;stroke-dashoffset:0;stroke-opacity:1" />
  </g>
</svg>
